<svg width="15" height="16" viewBox="0 0 15 16" fill="none" xmlns="http://www.w3.org/2000/svg">
<path d="M10.8333 1.5C12.0833 1.5 13.3333 2 14.3333 2.91667L15 2.25C13.8333 1.08333 12.3333 0.5 10.8333 0.5C9.33333 0.5 7.83333 1.08333 6.66667 2.25L7.33333 2.91667C8.33333 2 9.58333 1.5 10.8333 1.5ZM8.08333 3.58333L8.75 4.25C9.33333 3.66667 10.0833 3.41667 10.8333 3.41667C11.5833 3.41667 12.3333 3.66667 12.9167 4.25L13.5833 3.58333C12.8333 2.83333 11.8333 2.41667 10.8333 2.41667C9.83333 2.41667 8.83333 2.83333 8.08333 3.58333ZM13.3333 8.83333H11.6667V5.5H10V8.83333H1.66667C0.75 8.83333 0 9.58333 0 10.5V13.8333C0 14.75 0.75 15.5 1.66667 15.5H13.3333C14.25 15.5 15 14.75 15 13.8333V10.5C15 9.58333 14.25 8.83333 13.3333 8.83333ZM13.3333 13.8333H1.66667V10.5H13.3333V13.8333ZM2.5 11.3333H4.16667V13H2.5V11.3333ZM5.41667 11.3333H7.08333V13H5.41667V11.3333ZM8.33333 11.3333H10V13H8.33333V11.3333Z" fill="#2188FF"/>
</svg>
